<?xml version="1.0" standalone="no"?><svg xmlns="http://www.w3.org/2000/svg" viewBox="0 0 1440 320"><path fill="#bbb044" fill-opacity="1" d="M0,128L30,128C60,128,120,128,180,117.3C240,107,300,85,360,96C420,107,480,149,540,154.7C600,160,660,128,720,138.7C780,149,840,203,900,192C960,181,1020,107,1080,90.7C1140,75,1200,117,1260,117.3C1320,117,1380,75,1410,53.3L1440,32L1440,0L1410,0C1380,0,1320,0,1260,0C1200,0,1140,0,1080,0C1020,0,960,0,900,0C840,0,780,0,720,0C660,0,600,0,540,0C480,0,420,0,360,0C300,0,240,0,180,0C120,0,60,0,30,0L0,0Z"></path></svg>