<?xml version="1.0" standalone="no"?><svg xmlns="http://www.w3.org/2000/svg" viewBox="0 0 1440 320"><path fill="#e24c4e" fill-opacity="1" d="M0,128L20,117.3C40,107,80,85,120,117.3C160,149,200,235,240,234.7C280,235,320,149,360,122.7C400,96,440,128,480,122.7C520,117,560,75,600,90.7C640,107,680,181,720,181.3C760,181,800,107,840,90.7C880,75,920,117,960,117.3C1000,117,1040,75,1080,69.3C1120,64,1160,96,1200,122.7C1240,149,1280,171,1320,160C1360,149,1400,107,1420,85.3L1440,64L1440,0L1420,0C1400,0,1360,0,1320,0C1280,0,1240,0,1200,0C1160,0,1120,0,1080,0C1040,0,1000,0,960,0C920,0,880,0,840,0C800,0,760,0,720,0C680,0,640,0,600,0C560,0,520,0,480,0C440,0,400,0,360,0C320,0,280,0,240,0C200,0,160,0,120,0C80,0,40,0,20,0L0,0Z"></path></svg>